<?xml version="1.0" encoding="UTF-8"?>
<svg xmlns="http://www.w3.org/2000/svg" viewBox="0 0 88.84 87.02">
  <defs>
    <style>
      .cls-1 {
        fill: #d2f1f9;
      }

      .cls-2 {
        fill: #b7ebf9;
      }

      .cls-3 {
        fill: #b54139;
      }

      .cls-4 {
        fill: #e13017;
      }

      .cls-5 {
        fill: #bf433a;
      }

      .cls-6 {
        isolation: isolate;
      }

      .cls-7 {
        fill: #4c6da0;
      }

      .cls-8 {
        fill: #ed7269;
      }

      .cls-9 {
        fill: #e8614f;
      }

      .cls-10 {
        fill: #fedc7a;
      }

      .cls-11 {
        fill: #3b5d7f;
      }

      .cls-12 {
        fill: #f2b00a;
      }

      .cls-13 {
        fill: #ffbdbb;
      }

      .cls-14 {
        fill: #a7ddea;
      }

      .cls-15, .cls-16 {
        fill: #cc5144;
      }

      .cls-16 {
        mix-blend-mode: multiply;
      }

      .cls-17 {
        fill: #7fcce6;
      }
    </style>
  </defs>
  <g class="cls-6">
    <g id="Layer_2" data-name="Layer 2">
      <g id="OBJECTS">
        <g>
          <g>
            <path class="cls-4" d="M26.59,50.2c-.1-.13-.22-.25-.33-.37,3.43-1.23,6.29-3.14,8.22-5.47-1.92-2.33-4.76-4.23-8.18-5.46.1-.11.2-.21.29-.32-2.14-2.6-6.14-4.35-10.72-4.35s-8.58,1.75-10.72,4.35c.32.39.7.76,1.1,1.11-2.56,1.2-4.71,2.79-6.26,4.67,1.56,1.89,3.72,3.49,6.31,4.69-.42.36-.81.75-1.15,1.16,2.14,2.6,6.14,4.35,10.72,4.35s8.58-1.75,10.72-4.35Z"/>
            <path class="cls-12" d="M24.42,48.86c-.08-.1-.17-.19-.25-.28,2.64-.94,4.83-2.41,6.31-4.2-1.47-1.79-3.66-3.25-6.28-4.19.07-.08.15-.16.22-.25-1.65-1.99-4.71-3.34-8.23-3.34s-6.59,1.34-8.23,3.34c.25.3.53.59.84.86-1.97.92-3.62,2.14-4.8,3.58,1.2,1.45,2.86,2.68,4.84,3.6-.33.28-.62.57-.88.89,1.65,1.99,4.71,3.34,8.23,3.34s6.59-1.34,8.23-3.34Z"/>
            <path class="cls-10" d="M26,47.7c-.06-.07-.12-.14-.19-.21,1.95-.7,3.58-1.79,4.67-3.11-1.09-1.32-2.71-2.4-4.65-3.1.06-.06.11-.12.16-.18-1.22-1.48-3.49-2.47-6.1-2.47s-4.88,1-6.1,2.47c.18.22.4.43.63.63-1.46.68-2.68,1.59-3.56,2.65.89,1.07,2.12,1.99,3.59,2.67-.24.21-.46.43-.65.66,1.22,1.48,3.49,2.47,6.1,2.47s4.88-1,6.1-2.47Z"/>
          </g>
          <g>
            <path class="cls-4" d="M23.41,21.08c-.04-.05-.09-.1-.13-.15,1.38-.49,2.53-1.26,3.3-2.2-.77-.93-1.91-1.7-3.29-2.19.04-.04.08-.09.11-.13-.86-1.04-2.47-1.75-4.31-1.75s-3.45.7-4.31,1.75c.13.16.28.31.44.45-1.03.48-1.89,1.12-2.51,1.88.63.76,1.5,1.4,2.53,1.88-.17.15-.33.3-.46.46.86,1.04,2.47,1.75,4.31,1.75s3.45-.7,4.31-1.75Z"/>
            <path class="cls-12" d="M22.54,20.53s-.07-.08-.1-.11c1.06-.38,1.94-.97,2.54-1.69-.59-.72-1.47-1.3-2.52-1.68.03-.03.06-.07.09-.1-.66-.8-1.89-1.34-3.31-1.34s-2.65.54-3.31,1.34c.1.12.21.24.34.34-.79.37-1.45.86-1.93,1.44.48.58,1.15,1.08,1.95,1.45-.13.11-.25.23-.35.36.66.8,1.89,1.34,3.31,1.34s2.65-.54,3.31-1.34Z"/>
            <path class="cls-10" d="M23.17,20.07s-.05-.06-.07-.08c.78-.28,1.44-.72,1.88-1.25-.44-.53-1.09-.97-1.87-1.25.02-.02.04-.05.07-.07-.49-.59-1.4-.99-2.45-.99s-1.96.4-2.45.99c.07.09.16.17.25.25-.59.27-1.08.64-1.43,1.07.36.43.85.8,1.44,1.07-.1.08-.19.17-.26.26.49.59,1.4.99,2.45.99s1.96-.4,2.45-.99Z"/>
          </g>
          <g>
            <path class="cls-4" d="M23.41,71.23c-.04-.05-.09-.1-.13-.15,1.38-.49,2.53-1.26,3.3-2.2-.77-.93-1.91-1.7-3.29-2.19.04-.04.08-.09.11-.13-.86-1.04-2.47-1.75-4.31-1.75s-3.45.7-4.31,1.75c.13.16.28.31.44.45-1.03.48-1.89,1.12-2.51,1.88.63.76,1.5,1.4,2.53,1.88-.17.15-.33.3-.46.46.86,1.04,2.47,1.75,4.31,1.75s3.45-.7,4.31-1.75Z"/>
            <path class="cls-12" d="M22.54,70.69s-.07-.08-.1-.11c1.06-.38,1.94-.97,2.54-1.69-.59-.72-1.47-1.3-2.52-1.68.03-.03.06-.07.09-.1-.66-.8-1.89-1.34-3.31-1.34s-2.65.54-3.31,1.34c.1.12.21.24.34.34-.79.37-1.45.86-1.93,1.44.48.58,1.15,1.08,1.95,1.45-.13.11-.25.23-.35.36.66.8,1.89,1.34,3.31,1.34s2.65-.54,3.31-1.34Z"/>
            <path class="cls-10" d="M23.17,70.22s-.05-.06-.07-.08c.78-.28,1.44-.72,1.88-1.25-.44-.53-1.09-.97-1.87-1.25.02-.02.04-.05.07-.07-.49-.59-1.4-.99-2.45-.99s-1.96.4-2.45.99c.07.09.16.17.25.25-.59.27-1.08.64-1.43,1.07.36.43.85.8,1.44,1.07-.1.08-.19.17-.26.26.49.59,1.4.99,2.45.99s1.96-.4,2.45-.99Z"/>
          </g>
          <g>
            <polygon class="cls-15" points="20.86 66.12 20.86 71.91 36.43 76.8 36.43 61.23 20.86 66.12"/>
            <polygon class="cls-3" points="36.43 76.8 20.86 71.91 20.86 68.89 36.43 73.79 36.43 76.8"/>
            <polygon class="cls-16" points="26.77 64.26 30.92 62.96 30.92 75.07 26.77 73.77 26.77 64.26"/>
            <polygon class="cls-15" points="20.86 21.63 20.86 15.85 36.43 10.95 36.43 26.52 20.86 21.63"/>
            <polygon class="cls-3" points="36.43 10.95 20.86 15.85 20.86 18.86 36.43 13.97 36.43 10.95"/>
            <polygon class="cls-16" points="26.77 23.49 30.92 24.79 30.92 12.69 26.77 13.99 26.77 23.49"/>
            <path class="cls-9" d="M33.19,86.44l54.65-41c1.34-1,1.34-2.86,0-3.86L33.19.58c-1.81-1.36-4.55-.19-4.55,1.93v81.99c0,2.12,2.74,3.29,4.55,1.93Z"/>
            <path class="cls-5" d="M88.84,43.51c0-.71-.33-1.43-1-1.93L33.19.58c-1.81-1.36-4.55-.19-4.55,1.93v41h60.2Z"/>
            <g>
              <path class="cls-2" d="M72.84,43.51s-7.3-13.32-25.23-13.32h-28.76v26.65h28.76c17.93,0,25.23-13.32,25.23-13.32Z"/>
              <path class="cls-14" d="M47.61,30.19h-28.76v14.15c17.59.31,53.99-.83,53.99-.83,0,0-7.3-13.32-25.23-13.32Z"/>
              <path class="cls-17" d="M72.84,43.51s-7.3-13.32-25.23-13.32h-28.76v4.34h28.76c17.93,0,25.23,8.99,25.23,8.99Z"/>
              <path class="cls-1" d="M72.84,43.51s-7.3,13.32-25.23,13.32-28.76,0-28.76,0v-4.34s10.84,0,28.76,0c17.93,0,25.23-8.99,25.23-8.99Z"/>
            </g>
            <path class="cls-8" d="M28.64,25.89h20.34c.72,0,1.33-.44,1.56-1.13.23-.68,0-1.41-.57-1.84l-14.64-11.01c-.28-.21-.64-.33-.99-.33h-5.7v.75h5.7c.19,0,.38.06.54.18l14.64,11.01c.38.29.41.7.31,1-.1.3-.37.61-.85.61h-20.34v.75Z"/>
            <path class="cls-7" d="M58.15,44.01s-2.68-10.4-11.87-10.4c0,0,3.48,5.66,3.48,10.4s-3.48,10.4-3.48,10.4c9.19,0,11.87-10.4,11.87-10.4Z"/>
            <path class="cls-11" d="M57.31,46.28c.59-1.32.84-2.27.84-2.27,0,0-2.68-10.4-11.87-10.4,0,0,1.27,2.08,2.28,4.77,4.93,1.02,7.55,5.23,8.75,7.9Z"/>
            <path class="cls-13" d="M28.64,61.86h20.34c.72,0,1.33.44,1.56,1.13.23.68,0,1.41-.57,1.84l-14.64,11.01c-.28.21-.64.33-.99.33h-5.7v-.75h5.7c.19,0,.38-.06.54-.18l14.64-11.01c.38-.29.41-.7.31-1-.1-.3-.37-.61-.85-.61h-20.34v-.75Z"/>
          </g>
        </g>
      </g>
    </g>
  </g>
</svg>