<?xml version="1.0" encoding="UTF-8"?>
<svg xmlns="http://www.w3.org/2000/svg" viewBox="0 0 91.75 87.02">
  <defs>
    <style>
      .cls-1 {
        fill: #2c4768;
      }

      .cls-2 {
        fill: #d2f1f9;
      }

      .cls-3 {
        fill: #b7ebf9;
      }

      .cls-4 {
        fill: #e13017;
      }

      .cls-5 {
        fill: #c8cccc;
        mix-blend-mode: multiply;
      }

      .cls-6 {
        mix-blend-mode: color-burn;
      }

      .cls-6, .cls-7 {
        fill: #7fcce6;
      }

      .cls-8 {
        fill: #82a2d1;
      }

      .cls-9 {
        isolation: isolate;
      }

      .cls-10 {
        fill: #ddb552;
      }

      .cls-11 {
        fill: #4c6da0;
      }

      .cls-12 {
        fill: #fff;
        mix-blend-mode: soft-light;
      }

      .cls-13 {
        fill: #fedc7a;
      }

      .cls-14 {
        fill: #f2b00a;
      }

      .cls-15 {
        fill: #3a5a89;
      }

      .cls-16 {
        fill: #a7ddea;
      }
    </style>
  </defs>
  <g class="cls-9">
    <g id="Layer_2" data-name="Layer 2">
      <g id="OBJECTS">
        <g>
          <g>
            <path class="cls-4" d="M65.16,37.46c.1.13.22.25.33.37-3.43,1.23-6.29,3.14-8.22,5.47,1.92,2.33,4.76,4.23,8.18,5.46-.1.11-.2.21-.29.32,2.14,2.6,6.14,4.35,10.72,4.35s8.58-1.75,10.72-4.35c-.32-.39-.7-.76-1.1-1.11,2.56-1.2,4.71-2.79,6.26-4.67-1.56-1.89-3.72-3.49-6.31-4.69.42-.36.81-.75,1.15-1.16-2.14-2.6-6.14-4.35-10.72-4.35s-8.58,1.75-10.72,4.35Z"/>
            <path class="cls-14" d="M67.33,38.81c.08.1.17.19.25.28-2.64.94-4.83,2.41-6.31,4.2,1.47,1.79,3.66,3.25,6.28,4.19-.07.08-.15.16-.22.25,1.65,1.99,4.71,3.34,8.23,3.34s6.59-1.34,8.23-3.34c-.25-.3-.53-.59-.84-.86,1.97-.92,3.62-2.14,4.8-3.58-1.2-1.45-2.86-2.68-4.84-3.6.33-.28.62-.57.88-.89-1.65-1.99-4.71-3.34-8.23-3.34s-6.59,1.34-8.23,3.34Z"/>
            <path class="cls-13" d="M65.76,39.96c.06.07.12.14.19.21-1.95.7-3.58,1.79-4.67,3.11,1.09,1.32,2.71,2.4,4.65,3.1-.06.06-.11.12-.16.18,1.22,1.48,3.49,2.47,6.1,2.47s4.88-1,6.1-2.47c-.18-.22-.4-.43-.63-.63,1.46-.68,2.68-1.59,3.56-2.65-.89-1.07-2.12-1.99-3.59-2.67.24-.21.46-.43.65-.66-1.22-1.48-3.49-2.47-6.1-2.47s-4.88,1-6.1,2.47Z"/>
          </g>
          <path class="cls-8" d="M55.65.58L1,41.58c-1.34,1-1.34,2.86,0,3.86l54.65,41c1.81,1.36,4.55.19,4.55-1.93V2.51c0-2.12-2.74-3.29-4.55-1.93Z"/>
          <path class="cls-11" d="M0,43.51c0,.71.33,1.43,1,1.93l54.65,41c1.81,1.36,4.55.19,4.55-1.93v-41S0,43.51,0,43.51Z"/>
          <path class="cls-13" d="M52.81,54.55s1.58,14.02-7.32,15.42v5.39s32.2-8.53,32.2-8.53v-6.02s-14.69-1.58-16.1-7.65l-8.78,1.39Z"/>
          <polygon class="cls-10" points="45.49 75.36 77.69 66.82 77.69 63.96 45.49 72.49 45.49 75.36"/>
          <path class="cls-13" d="M52.81,32.46s1.58-14.02-7.32-15.42v-5.39s32.2,8.53,32.2,8.53v6.02s-14.69,1.58-16.1,7.65l-8.78-1.39Z"/>
          <polygon class="cls-10" points="45.49 11.65 77.69 20.19 77.69 23.05 45.49 14.52 45.49 11.65"/>
          <g>
            <path class="cls-3" d="M18.49,43.51s7.3,13.32,25.23,13.32h20.93s0-26.65,0-26.65h-20.93c-17.93,0-25.23,13.32-25.23,13.32Z"/>
            <path class="cls-16" d="M43.72,56.83c17.93,0,20.93,0,20.93,0v-14.15c-17.59-.31-46.15.83-46.15.83,0,0,7.3,13.32,25.23,13.32Z"/>
            <path class="cls-7" d="M18.49,43.51s7.3,13.32,25.23,13.32h20.93s0-4.34,0-4.34h-20.93c-17.93,0-25.23-8.99-25.23-8.99Z"/>
            <path class="cls-2" d="M18.49,43.51s7.3-13.32,25.23-13.32c17.93,0,20.93,0,20.93,0v4.34s-3,0-20.93,0-25.23,8.99-25.23,8.99Z"/>
          </g>
          <g>
            <circle class="cls-15" cx="39.89" cy="63.96" r="3.86"/>
            <circle class="cls-16" cx="39.89" cy="63.96" r="1.48"/>
            <path class="cls-1" d="M40.72,67.36c-2.13,0-3.86-1.73-3.86-3.86,0-1.29.64-2.43,1.62-3.13-1.43.56-2.45,1.95-2.45,3.59,0,2.13,1.73,3.86,3.86,3.86.84,0,1.61-.27,2.24-.73-.44.17-.91.27-1.41.27Z"/>
          </g>
          <g>
            <circle class="cls-15" cx="39.89" cy="23.05" r="3.86"/>
            <circle class="cls-16" cx="39.89" cy="23.05" r="1.48"/>
            <path class="cls-1" d="M40.72,26.46c-2.13,0-3.86-1.73-3.86-3.86,0-1.29.64-2.43,1.62-3.13-1.43.56-2.45,1.95-2.45,3.59,0,2.13,1.73,3.86,3.86,3.86.84,0,1.61-.27,2.24-.73-.44.17-.91.27-1.41.27Z"/>
          </g>
          <g>
            <circle class="cls-5" cx="46.75" cy="43.75" r="8.4"/>
            <circle class="cls-11" cx="45.82" cy="43.27" r="8.4"/>
            <circle class="cls-13" cx="45.82" cy="43.27" r="6.23"/>
            <path class="cls-6" d="M46.14,48.56c-2.79-.35-5.05-2.59-5.39-5.38-.25-2.02.47-3.88,1.75-5.17-1.93,1.22-3.15,3.48-2.86,6,.32,2.81,2.58,5.09,5.39,5.44,2.04.25,3.92-.49,5.22-1.8-1.17.74-2.59,1.11-4.11.92Z"/>
          </g>
          <path class="cls-12" d="M45.82,37.04c-1.39,0-2.67.46-3.71,1.23l8.7,8.7c.77-1.04,1.23-2.32,1.23-3.71,0-.3-.03-.59-.07-.88l-5.28-5.28c-.29-.04-.58-.07-.88-.07Z"/>
          <path class="cls-12" d="M45.69,49.49l-6.09-6.09c.01.61.11,1.2.29,1.76l4.05,4.05c.56.18,1.14.27,1.76.29Z"/>
          <path class="cls-12" d="M49.3,48.44l-8.64-8.64c-.41.61-.71,1.31-.89,2.05l7.49,7.49c.74-.17,1.43-.48,2.05-.89Z"/>
        </g>
      </g>
    </g>
  </g>
</svg>